<?xml version="1.0" encoding="utf-8" ?>
<svg baseProfile="tiny" height="100%" version="1.2" viewBox="0,0,540,540" width="100%" xmlns="http://www.w3.org/2000/svg" xmlns:ev="http://www.w3.org/2001/xml-events" xmlns:xlink="http://www.w3.org/1999/xlink"><defs /><rect fill="white" height="540" stroke="black" stroke-width="2" width="540" x="0" y="0" /><line stroke="black" stroke-width="2" x1="60" x2="60" y1="0" y2="540" /><line stroke="black" stroke-width="2" x1="120" x2="120" y1="0" y2="540" /><line stroke="black" stroke-width="8" x1="180" x2="180" y1="0" y2="540" /><line stroke="black" stroke-width="2" x1="240" x2="240" y1="0" y2="540" /><line stroke="black" stroke-width="2" x1="300" x2="300" y1="0" y2="540" /><line stroke="black" stroke-width="8" x1="360" x2="360" y1="0" y2="540" /><line stroke="black" stroke-width="2" x1="420" x2="420" y1="0" y2="540" /><line stroke="black" stroke-width="2" x1="480" x2="480" y1="0" y2="540" /><line stroke="black" stroke-width="2" x1="0" x2="540" y1="60" y2="60" /><line stroke="black" stroke-width="2" x1="0" x2="540" y1="120" y2="120" /><line stroke="black" stroke-width="8" x1="0" x2="540" y1="180" y2="180" /><line stroke="black" stroke-width="2" x1="0" x2="540" y1="240" y2="240" /><line stroke="black" stroke-width="2" x1="0" x2="540" y1="300" y2="300" /><line stroke="black" stroke-width="8" x1="0" x2="540" y1="360" y2="360" /><line stroke="black" stroke-width="2" x1="0" x2="540" y1="420" y2="420" /><line stroke="black" stroke-width="2" x1="0" x2="540" y1="480" y2="480" /><text font-size="24" text-anchor="middle" x="270" y="40">8</text><text font-size="24" text-anchor="middle" x="330" y="40">6</text><text font-size="24" text-anchor="middle" x="150" y="100">4</text><text font-size="24" text-anchor="middle" x="210" y="100">1</text><text font-size="24" text-anchor="middle" x="450" y="100">5</text><text font-size="24" text-anchor="middle" x="30" y="160">6</text><text font-size="24" text-anchor="middle" x="150" y="160">7</text><text font-size="24" text-anchor="middle" x="210" y="160">3</text><text font-size="24" text-anchor="middle" x="30" y="220">2</text><text font-size="24" text-anchor="middle" x="90" y="220">6</text><text font-size="24" text-anchor="middle" x="150" y="220">8</text><text font-size="24" text-anchor="middle" x="270" y="220">5</text><text font-size="24" text-anchor="middle" x="330" y="220">1</text><text font-size="24" text-anchor="middle" x="450" y="220">9</text><text font-size="24" text-anchor="middle" x="30" y="280">7</text><text font-size="24" text-anchor="middle" x="90" y="280">4</text><text font-size="24" text-anchor="middle" x="150" y="280">9</text><text font-size="24" text-anchor="middle" x="210" y="280">8</text><text font-size="24" text-anchor="middle" x="270" y="280">6</text><text font-size="24" text-anchor="middle" x="330" y="280">3</text><text font-size="24" text-anchor="middle" x="450" y="280">1</text><text font-size="24" text-anchor="middle" x="510" y="280">5</text><text font-size="24" text-anchor="middle" x="90" y="340">1</text><text font-size="24" text-anchor="middle" x="210" y="340">7</text><text font-size="24" text-anchor="middle" x="270" y="340">9</text><text font-size="24" text-anchor="middle" x="510" y="340">6</text><text font-size="24" text-anchor="middle" x="150" y="400">3</text><text font-size="24" text-anchor="middle" x="330" y="400">4</text><text font-size="24" text-anchor="middle" x="150" y="460">6</text><text font-size="24" text-anchor="middle" x="210" y="460">5</text><text font-size="24" text-anchor="middle" x="270" y="460">1</text><text font-size="24" text-anchor="middle" x="90" y="520">7</text><text font-size="24" text-anchor="middle" x="270" y="520">3</text><text font-size="24" text-anchor="middle" x="330" y="520">9</text><text font-size="24" text-anchor="middle" x="450" y="520">6</text></svg>